HIERARCHY
ROOT Hips
{
	OFFSET 0.000000 0.000000 0.000000
	CHANNELS 6 Xposition Yposition Zposition Zrotation Yrotation Xrotation 
	JOINT LowerBack
	{
		OFFSET 0.000000 0.000000 0.000000
		CHANNELS 3 Zrotation Yrotation Xrotation
		JOINT Spine
		{
			OFFSET 0.028270 2.035590 -0.193380
			CHANNELS 3 Zrotation Yrotation Xrotation
			JOINT Spine1
			{
				OFFSET 0.056720 2.048850 -0.042750
				CHANNELS 3 Zrotation Yrotation Xrotation
				JOINT Neck
				{
					OFFSET 0.000000 0.000000 0.000000
					CHANNELS 3 Zrotation Yrotation Xrotation
					JOINT Neck1
					{
						OFFSET -0.054170 1.746240 0.172020
						CHANNELS 3 Zrotation Yrotation Xrotation
						JOINT Head
						{
							OFFSET 0.104070 1.761360 -0.123970
							CHANNELS 3 Zrotation Yrotation Xrotation
							End Site
							{
								OFFSET 0.000000 0.000000 0.000000
							}
						}
					}
				}
				JOINT LeftShoulder
				{
					OFFSET 0.000000 0.000000 0.000000
					CHANNELS 3 Zrotation Yrotation Xrotation
					JOINT LeftArm
					{
						OFFSET 3.362410 1.200890 -0.311210
						CHANNELS 3 Zrotation Yrotation Xrotation
						JOINT LeftForeArm
						{
							OFFSET 4.983000 -0.000000 -0.000000
							CHANNELS 3 Zrotation Yrotation Xrotation
							JOINT LeftHand
							{
								OFFSET 3.483560 -0.000000 -0.000000
								CHANNELS 3 Zrotation Yrotation Xrotation
								JOINT LeftFingerBase
								{
									OFFSET 0.000000 0.000000 0.000000
									CHANNELS 3 Zrotation Yrotation Xrotation
									JOINT LeftHandIndex1
									{
										OFFSET 0.715260 -0.000000 -0.000000
										CHANNELS 3 Zrotation Yrotation Xrotation
										End Site
										{
											OFFSET 0.000000 0.000000 0.000000
										}
									}
								}
								JOINT LThumb
								{
									OFFSET 0.000000 0.000000 0.000000
									CHANNELS 3 Zrotation Yrotation Xrotation
									End Site
									{
										OFFSET 0.000000 0.000000 0.000000
									}
								}
							}
						}
					}
				}
				JOINT RightShoulder
				{
					OFFSET 0.000000 0.000000 0.000000
					CHANNELS 3 Zrotation Yrotation Xrotation
					JOINT RightArm
					{
						OFFSET -3.136600 1.374050 -0.404650
						CHANNELS 3 Zrotation Yrotation Xrotation
						JOINT RightForeArm
						{
							OFFSET -5.241900 -0.000000 -0.000000
							CHANNELS 3 Zrotation Yrotation Xrotation
							JOINT RightHand
							{
								OFFSET -3.444170 -0.000000 -0.000000
								CHANNELS 3 Zrotation Yrotation Xrotation
								JOINT RightFingerBase
								{
									OFFSET 0.000000 0.000000 0.000000
									CHANNELS 3 Zrotation Yrotation Xrotation
									JOINT RightHandIndex1
									{
										OFFSET -0.622530 -0.000000 -0.000000
										CHANNELS 3 Zrotation Yrotation Xrotation
										End Site
										{
											OFFSET 0.000000 0.000000 0.000000
										}
									}
								}
								JOINT RThumb
								{
									OFFSET 0.000000 0.000000 0.000000
									CHANNELS 3 Zrotation Yrotation Xrotation
									End Site
									{
										OFFSET 0.000000 0.000000 0.000000
									}
								}
							}
						}
					}
				}
			}
		}
	}
}
}
MOTION
Frames: 6
Frame Time: 0.008333
-9.385585 16.438537 -2.584441 3.913003 77.162160 17.816435 0.492418 0.277267 -3.351140 -0.774928 0.054388 -3.752325 -6.767622 -0.065490 -0.085667 9.710840 -3.623505 -5.989060 -3.933924 -0.327284 0.462263 0.000000 0.000000 0.000000 -5.820847 10.037205 2.199970 -65.215259 23.076556 5.774583 -4.001415 -12.150997 -0.005367 1.142606 4.385575 0.048301 -0.093608 -0.110103 -0.000000 0.000000 0.000000 0.000000 0.000000 0.000000 0.000000 16.576992 1.700905 0.272189 64.195838 21.167062 8.611252 1.967313 47.226972 0.000646 -3.115342 8.409856 -0.241250 0.083161 -0.260301 -0.000000 0.000000 0.000000 0.000000 0.000000 0.000000 0.000000 
-9.166855 16.401794 -2.558329 7.051207 76.886598 20.749435 -0.208598 0.042469 -3.259256 -0.900837 -0.123818 -3.740616 -6.813970 -0.250495 -0.096339 9.890627 -3.692254 -6.036684 -3.991758 -0.330890 0.446250 0.000000 0.000000 0.000000 -5.629549 9.764609 2.213959 -64.997569 22.487807 6.329935 -4.004833 -12.046562 -0.005163 1.252080 4.374190 0.052510 -0.093524 -0.107797 -0.000000 0.000000 0.000000 0.000000 0.000000 0.000000 0.000000 17.048630 1.483370 0.297456 64.803402 20.281337 8.058601 2.013751 45.946015 0.000033 -3.506496 8.515226 -0.274358 0.086960 -0.252998 -0.000000 0.000000 0.000000 0.000000 0.000000 0.000000 0.000000 
-8.956901 16.370555 -2.529983 9.892540 76.564202 23.410365 -0.862914 -0.189669 -3.131274 -1.017421 -0.302095 -3.720769 -6.853742 -0.434621 -0.106215 10.036441 -3.755735 -6.090059 -4.047942 -0.334209 0.427598 0.000000 0.000000 0.000000 -5.449589 9.467991 2.235761 -64.787223 21.702477 6.830958 -3.999773 -11.896349 -0.004681 1.484281 4.336351 0.060926 -0.092903 -0.104249 -0.000000 0.000000 0.000000 0.000000 0.000000 0.000000 0.000000 17.470834 1.262897 0.323342 65.486354 19.387952 7.401179 2.053580 44.549248 -0.000871 -4.006192 8.633090 -0.316974 0.091093 -0.245722 -0.000000 0.000000 0.000000 0.000000 0.000000 0.000000 0.000000 
-8.755564 16.345924 -2.500372 12.296469 76.166244 25.657586 -1.443812 -0.406031 -2.968754 -1.120707 -0.469605 -3.692903 -6.887749 -0.606763 -0.113181 10.147064 -3.810066 -6.147315 -4.102618 -0.337261 0.406858 0.000000 0.000000 0.000000 -5.291729 9.165679 2.261243 -64.585626 20.729362 7.257695 -3.984377 -11.720692 -0.003906 1.854356 4.265042 0.074048 -0.091595 -0.099577 -0.000000 0.000000 0.000000 0.000000 0.000000 0.000000 0.000000 17.843235 1.047966 0.351830 66.220681 18.495966 6.653794 2.086825 43.044834 -0.002003 -4.603080 8.754185 -0.368496 0.095415 -0.238338 -0.000000 0.000000 0.000000 0.000000 0.000000 0.000000 0.000000 
-8.562257 16.328657 -2.470397 14.155972 75.672406 27.382226 -1.930246 -0.596028 -2.776508 -1.207449 -0.617548 -3.657861 -6.916741 -0.757992 -0.115317 10.222993 -3.852260 -6.205922 -4.155789 -0.340070 0.384855 0.000000 0.000000 0.000000 -5.165583 8.873782 2.286196 -64.393340 19.587241 7.594204 -3.957711 -11.547196 -0.002871 2.365000 4.154879 0.090973 -0.089506 -0.093963 -0.000000 0.000000 0.000000 0.000000 0.000000 0.000000 0.000000 18.166966 0.845089 0.384579 66.980763 17.612092 5.837638 2.114440 41.443264 -0.003264 -5.274355 8.866863 -0.426628 0.099736 -0.230691 -0.000000 0.000000 0.000000 0.000000 0.000000 0.000000 0.000000 
-8.376161 16.319089 -2.440738 15.431571 75.073713 28.539525 -2.311477 -0.753936 -2.559546 -1.275890 -0.741054 -3.616692 -6.941241 -0.883440 -0.111390 10.266943 -3.880315 -6.262524 -4.207099 -0.342648 0.362700 0.000000 0.000000 0.000000 -5.074943 8.602959 2.307204 -64.210250 18.305576 7.829996 -3.920168 -11.408159 -0.001654 3.006120 4.002416 0.110404 -0.086639 -0.087651 -0.000000 0.000000 0.000000 0.000000 0.000000 0.000000 0.000000 18.444297 0.657783 0.422468 67.741864 16.739096 4.978276 2.137973 39.758762 -0.004537 -5.986366 8.956171 -0.488168 0.103819 -0.222626 -0.000000 0.000000 0.000000 0.000000 0.000000 0.000000 0.000000 
